<svg width="62" height="62" viewBox="0 0 62 62" fill="none" xmlns="http://www.w3.org/2000/svg">
<circle cx="31" cy="31" r="30.5" stroke="#F0F0F0"/>
<path d="M34.7967 46.2288H25.3333C20.1625 46.2288 17.1875 43.2538 17.1875 38.083V26.0413C17.1875 20.8705 20.1625 17.8955 25.3333 17.8955H36.6667C41.8375 17.8955 44.8125 20.8705 44.8125 26.0413V33.3088C44.8125 33.7197 44.5716 34.088 44.2175 34.2722C43.8491 34.4422 43.41 34.3996 43.0983 34.1446C40.86 32.3596 37.4175 32.3597 35.1792 34.1872C33.6492 35.3913 32.785 37.1905 32.785 39.1597C32.785 40.3214 33.0967 41.4547 33.7058 42.4322C34.1733 43.1972 34.7542 43.8347 35.4342 44.3164C35.8025 44.5855 35.9725 45.0672 35.8308 45.5063C35.6608 45.9313 35.2642 46.2288 34.7967 46.2288ZM25.3333 20.0205C21.2817 20.0205 19.3125 21.9897 19.3125 26.0413V38.083C19.3125 42.1347 21.2817 44.1038 25.3333 44.1038H32.2609C32.1192 43.9197 31.9917 43.7214 31.8783 43.523C31.0708 42.2197 30.6458 40.7038 30.6458 39.1455C30.6458 36.5247 31.8075 34.1164 33.8475 32.5155C36.27 30.5464 39.8542 30.1213 42.6875 31.4247V26.0413C42.6875 21.9897 40.7183 20.0205 36.6667 20.0205H25.3333Z" fill="white"/>
<path d="M32.4165 30.6455H23.9165C23.3357 30.6455 22.854 30.1638 22.854 29.583C22.854 29.0022 23.3357 28.5205 23.9165 28.5205H32.4165C32.9973 28.5205 33.479 29.0022 33.479 29.583C33.479 30.1638 32.9973 30.6455 32.4165 30.6455Z" fill="white"/>
<path d="M27.6282 37.7295H23.9165C23.3357 37.7295 22.854 37.2478 22.854 36.667C22.854 36.0862 23.3357 35.6045 23.9165 35.6045H27.6282C28.209 35.6045 28.6907 36.0862 28.6907 36.667C28.6907 37.2478 28.2232 37.7295 27.6282 37.7295Z" fill="white"/>
<path d="M39.146 47.6453C37.3327 47.6453 35.6185 47.0786 34.1735 46.0303C33.2668 45.3786 32.4877 44.5287 31.8785 43.5228C31.071 42.2195 30.646 40.7036 30.646 39.1453C30.646 36.5245 31.8077 34.1162 33.8477 32.5153C36.7943 30.1212 41.441 30.1069 44.416 32.4728C46.4702 34.0878 47.646 36.5245 47.646 39.1453C47.646 40.7036 47.221 42.2195 46.4135 43.5228C45.9602 44.302 45.3793 44.982 44.7135 45.5345C43.1977 46.8945 41.2143 47.6453 39.146 47.6453ZM39.146 32.7703C37.701 32.7703 36.2843 33.2661 35.1652 34.1728C33.6352 35.377 32.771 37.1761 32.771 39.1453C32.771 40.307 33.0827 41.4403 33.6918 42.4178C34.1593 43.1828 34.7402 43.8203 35.4202 44.302C36.511 45.0953 37.8002 45.5203 39.146 45.5203C40.7185 45.5203 42.1635 44.9678 43.3252 43.9337C43.8352 43.5086 44.246 43.0128 44.586 42.432C45.1952 41.4403 45.521 40.307 45.521 39.1453C45.521 37.1761 44.6427 35.3628 43.0985 34.1444C41.9652 33.2378 40.6052 32.7703 39.146 32.7703Z" fill="white"/>
<path d="M39.1457 43.7503C38.5648 43.7503 38.0832 43.2687 38.0832 42.6878C38.0832 41.3278 36.964 40.2087 35.604 40.2087C35.0232 40.2087 34.5415 39.727 34.5415 39.1462C34.5415 38.5653 35.0232 38.0837 35.604 38.0837C36.964 38.0837 38.0832 36.9645 38.0832 35.6045C38.0832 35.0237 38.5648 34.542 39.1457 34.542C39.7265 34.542 40.2082 35.0237 40.2082 35.6045C40.2082 36.9645 41.3273 38.0837 42.6873 38.0837C43.2682 38.0837 43.7498 38.5653 43.7498 39.1462C43.7498 39.727 43.2682 40.2087 42.6873 40.2087C41.3273 40.2087 40.2082 41.3278 40.2082 42.6878C40.2082 43.2687 39.7265 43.7503 39.1457 43.7503ZM38.5365 39.1462C38.749 39.3303 38.9615 39.5286 39.1457 39.7553C39.3298 39.5428 39.5282 39.3303 39.7548 39.1462C39.5423 38.962 39.3298 38.7637 39.1457 38.537C38.9615 38.7637 38.7632 38.962 38.5365 39.1462Z" fill="white"/>
</svg>
