<svg width="62" height="62" viewBox="0 0 62 62" fill="none" xmlns="http://www.w3.org/2000/svg">
<path d="M30.9999 46.229C30.9149 46.229 30.8299 46.2148 30.7591 46.2006C30.6741 46.1865 30.5891 46.144 30.5041 46.1015L27.3733 44.5431C26.8491 44.274 26.6366 43.6365 26.8916 43.1123C27.1608 42.5881 27.7983 42.3756 28.3224 42.6306L29.9374 43.4381V41.2281C29.9374 40.6473 30.4191 40.1656 30.9999 40.1656C31.5808 40.1656 32.0624 40.6473 32.0624 41.2281V43.4381L33.6774 42.6306C34.2016 42.3756 34.8391 42.5881 35.1083 43.1123C35.3774 43.6365 35.1649 44.274 34.6266 44.5431L31.4958 46.1015C31.4108 46.144 31.3258 46.1723 31.2408 46.2006C31.1558 46.2148 31.0849 46.229 30.9999 46.229ZM40.4491 41.5115C40.0666 41.5115 39.6841 41.299 39.4999 40.9306C39.2308 40.4065 39.4433 39.769 39.9816 39.4998L42.5458 38.2248V34.9523C42.5458 34.3715 43.0274 33.8898 43.6083 33.8898C44.1891 33.8898 44.6708 34.3715 44.6708 34.9523V38.8906C44.6708 39.2873 44.4441 39.6556 44.0899 39.8398L40.9449 41.4123C40.7608 41.469 40.6049 41.5115 40.4491 41.5115ZM21.5508 41.5115C21.3949 41.5115 21.2249 41.469 21.0833 41.3981L17.9383 39.8256C17.5841 39.6415 17.3574 39.2731 17.3574 38.8765V34.9381C17.3574 34.3573 17.8391 33.8756 18.4199 33.8756C19.0008 33.8756 19.4824 34.3573 19.4824 34.9381V38.2106L22.0466 39.4856C22.5708 39.7548 22.7833 40.3923 22.5283 40.9165C22.3158 41.2848 21.9474 41.5115 21.5508 41.5115ZM30.9999 34.4281C30.4191 34.4281 29.9374 33.9465 29.9374 33.3656V30.0931L27.3733 28.8181C26.8491 28.549 26.6366 27.9115 26.8916 27.3873C27.1608 26.8631 27.7983 26.6506 28.3224 26.9056L30.9999 28.2373L33.6774 26.9056C34.2016 26.6506 34.8391 26.849 35.1083 27.3873C35.3774 27.9256 35.1649 28.549 34.6266 28.8181L32.0624 30.0931V33.3656C32.0624 33.9465 31.5808 34.4281 30.9999 34.4281ZM43.5941 28.124C43.0133 28.124 42.5316 27.6423 42.5316 27.0615V24.8515L40.9166 25.659C40.3924 25.9281 39.7549 25.7156 39.4858 25.1773C39.2166 24.6531 39.4291 24.0156 39.9674 23.7465L41.2141 23.1231L39.9674 22.4998C39.4433 22.2306 39.2308 21.5931 39.4858 21.069C39.7549 20.5448 40.3924 20.3323 40.9166 20.5873L44.0474 22.1456C44.0758 22.1598 44.1183 22.174 44.1466 22.2023C44.2316 22.2448 44.3024 22.3156 44.3733 22.3865C44.4158 22.4431 44.4583 22.4998 44.5008 22.5565C44.5574 22.6556 44.5999 22.7548 44.6283 22.8681C44.6424 22.9531 44.6566 23.0381 44.6566 23.109V23.1231V27.0331C44.6566 27.6565 44.1749 28.124 43.5941 28.124ZM18.4058 28.124C17.8249 28.124 17.3433 27.6423 17.3433 27.0615V23.1515V23.1373C17.3433 23.0523 17.3574 22.9673 17.3716 22.8965C17.3999 22.7831 17.4424 22.684 17.4991 22.5848C17.5416 22.514 17.5841 22.4573 17.6408 22.4006C17.6974 22.344 17.7683 22.2873 17.8391 22.2448C17.8674 22.2306 17.9099 22.2023 17.9383 22.1881L21.0691 20.6298C21.5933 20.3748 22.2308 20.5731 22.4999 21.1115C22.7691 21.6498 22.5566 22.2731 22.0183 22.5423L20.7716 23.1656L22.0183 23.789C22.5424 24.0581 22.7549 24.6956 22.4999 25.2198C22.2308 25.744 21.6074 25.9565 21.0691 25.7015L19.4541 24.894V27.104C19.4683 27.6565 19.0008 28.124 18.4058 28.124ZM34.1449 19.4681C33.9891 19.4681 33.8191 19.4256 33.6774 19.3548L30.9999 18.0231L28.3224 19.3548C27.7983 19.624 27.1608 19.4115 26.8916 18.8731C26.6224 18.349 26.8349 17.7115 27.3733 17.4423L30.5183 15.8698C30.8158 15.714 31.1699 15.714 31.4674 15.8698L34.6124 17.4423C35.1366 17.7115 35.3491 18.349 35.0941 18.8731C34.9099 19.2556 34.5416 19.4681 34.1449 19.4681Z" fill="white"/>
<circle cx="31" cy="31" r="30.5" stroke="#F0F0F0"/>
</svg>
