<svg width="70" height="65" viewBox="0 0 70 65" fill="none" xmlns="http://www.w3.org/2000/svg">
<path d="M59.9967 44.2951V14.7165C59.9967 13.866 59.6399 13.066 58.9918 12.4635L46.9594 1.2906C46.3114 0.688797 45.4497 0.357422 44.5331 0.357422H12.4167C10.5245 0.357422 8.98535 1.78661 8.98535 3.54367V30.5945V44.2951C26.2779 46.1586 43.292 46.2245 59.9967 44.2951Z" fill="#DCDFE1"/>
<path d="M8.98535 44.2949V52.1625V60.2233C8.98535 61.9804 10.5245 63.4096 12.4167 63.4096H56.5662C58.4584 63.4096 59.9975 61.9804 59.9975 60.2233V44.2949H8.98535Z" fill="#0851BF"/>
<path d="M46.0117 13.2559L59.9996 26.1956L59.9393 14.1806L46.0117 13.2559Z" fill="#C4CBD2"/>
<path d="M58.9919 12.4644L46.9596 1.29149C46.4503 0.817895 45.806 0.519447 45.1089 0.410156V11.1865C45.1089 12.8385 46.5567 14.1829 48.3358 14.1829H59.9411C59.8234 13.5363 59.502 12.938 58.9919 12.4644Z" fill="#ABB2B8"/>
<path d="M25.5068 48.2227H22.2068C21.6862 48.2227 21.2637 48.615 21.2637 49.0984V54.7668V58.6487C21.2637 59.1321 21.6862 59.5244 22.2068 59.5244C22.7273 59.5244 23.1499 59.1321 23.1499 58.6487V55.6425H25.5068C27.2074 55.6425 28.5911 54.3576 28.5911 52.7785V51.0866C28.5911 49.5075 27.2074 48.2227 25.5068 48.2227ZM26.7049 52.7785C26.7049 53.3922 26.1677 53.8911 25.5068 53.8911H23.1499V49.9741H25.5068C26.1677 49.9741 26.7049 50.4729 26.7049 51.0866V52.7785Z" fill="white"/>
<path d="M34.756 59.5244H31.677C31.1564 59.5244 30.7339 59.1321 30.7339 58.6487V49.0984C30.7339 48.615 31.1564 48.2227 31.677 48.2227H34.7567C36.5795 48.2227 38.0613 49.5993 38.0613 51.2912V56.4552C38.0606 58.1478 36.5788 59.5244 34.756 59.5244ZM32.6201 57.773H34.7567C35.5391 57.773 36.1751 57.1817 36.1751 56.4552V51.2912C36.1751 50.5654 35.5384 49.9741 34.7567 49.9741H32.6201V57.773Z" fill="white"/>
<path d="M46.7755 48.2227H41.3342C40.8136 48.2227 40.3911 48.615 40.3911 49.0984V58.6487C40.3911 59.1321 40.8136 59.5244 41.3342 59.5244C41.8548 59.5244 42.2773 59.1321 42.2773 58.6487V54.7493H44.8976C45.4182 54.7493 45.8407 54.3569 45.8407 53.8735C45.8407 53.3901 45.4182 52.9978 44.8976 52.9978H42.2773V49.9748H46.7755C47.296 49.9748 47.7186 49.5825 47.7186 49.0991C47.7186 48.6157 47.2968 48.2227 46.7755 48.2227Z" fill="white"/>
<path d="M45.9113 28.3889C45.7951 28.1269 45.5189 27.9566 45.2141 27.9566H41.5889V19.7045C41.5889 19.3178 41.2516 19.0039 40.8344 19.0039H31.1651C30.7486 19.0039 30.4106 19.3178 30.4106 19.7045V27.9559H26.7854C26.4806 27.9559 26.2052 28.1269 26.0882 28.3882C25.9713 28.6502 26.0362 28.9515 26.252 29.1518L35.4663 37.708C35.6135 37.8446 35.8066 37.9133 35.9998 37.9133C36.1929 37.9133 36.386 37.8446 36.5332 37.708L45.7475 29.1525C45.9633 28.9515 46.0282 28.6509 45.9113 28.3889Z" fill="#C4CBD2"/>
<path d="M44.4025 26.9885C44.2863 26.7265 44.0101 26.5562 43.7053 26.5562H40.0801V18.3041C40.0801 17.9174 39.7428 17.6035 39.3256 17.6035H29.6563C29.2398 17.6035 28.9018 17.9174 28.9018 18.3041V26.5555H25.2766C24.9718 26.5555 24.6964 26.7265 24.5795 26.9878C24.4625 27.2498 24.5274 27.5511 24.7432 27.7514L33.9575 36.3076C34.1047 36.4443 34.2978 36.5129 34.491 36.5129C34.6841 36.5129 34.8773 36.4443 35.0244 36.3076L44.2387 27.7521C44.4545 27.5511 44.5194 27.2505 44.4025 26.9885Z" fill="#0851BF"/>
</svg>
