<svg width="62" height="62" viewBox="0 0 62 62" fill="none" xmlns="http://www.w3.org/2000/svg">
<path d="M35.8602 47.125H26.1402C23.3052 47.125 21.2352 45.94 20.4402 43.9C19.6152 41.77 20.3802 39.13 22.3602 37.345L29.3202 31L22.3602 24.655C20.3802 22.87 19.6152 20.23 20.4402 18.1C21.2352 16.045 23.3052 14.875 26.1402 14.875H35.8602C38.6952 14.875 40.7652 16.06 41.5602 18.1C42.3852 20.23 41.6202 22.87 39.6402 24.655L32.6802 31L39.6552 37.345C41.6202 39.13 42.4002 41.77 41.5752 43.9C40.7652 45.94 38.6952 47.125 35.8602 47.125ZM31.0002 32.515L23.8752 38.995C22.6152 40.15 22.0602 41.83 22.5402 43.075C22.9902 44.23 24.2652 44.875 26.1402 44.875H35.8602C37.7352 44.875 39.0102 44.245 39.4602 43.075C39.9402 41.83 39.4002 40.15 38.1252 38.995L31.0002 32.515ZM26.1402 17.125C24.2652 17.125 22.9902 17.755 22.5402 18.925C22.0602 20.17 22.6002 21.85 23.8752 23.005L31.0002 29.485L38.1252 23.005C39.3852 21.85 39.9402 20.17 39.4602 18.925C39.0102 17.77 37.7352 17.125 35.8602 17.125H26.1402Z" fill="#FAF8FF"/>
<circle cx="31" cy="31" r="30.5" stroke="#F0F0F0"/>
</svg>
