<svg width="70" height="70" viewBox="0 0 70 70" fill="none" xmlns="http://www.w3.org/2000/svg">
<g clip-path="url(#clip0_2709_12004)">
<path d="M63.152 18.2598H43.8567C43.175 18.2598 42.5297 18.5641 42.096 19.0906C41.6623 19.6156 41.4873 20.308 41.6167 20.976L46.6901 47.1723H26.0221C25.3373 47.1723 24.6906 47.4781 24.2554 48.0078C23.8217 48.5358 23.6498 49.2328 23.7837 49.9023L27.4359 68.1629C27.6581 69.2722 28.6001 69.9554 29.5922 69.9981H63.1521C66.9275 69.9981 69.9998 66.9257 69.9998 63.1504V25.1075C69.9997 21.3321 66.9273 18.2598 63.152 18.2598Z" fill="#B8C9D9"/>
<path d="M63.1519 38.8033H56.3042V36.5208C56.3042 35.2603 55.2822 34.2383 54.0216 34.2383C52.7611 34.2383 51.7391 35.2603 51.7391 36.5208V38.8033H44.8914C43.6309 38.8033 42.6089 39.8253 42.6089 41.0859C42.6089 42.3464 43.6309 43.3684 44.8914 43.3684H47.3499C47.7867 46.0839 49.0262 48.1421 50.8435 50.225C49.8677 51.176 48.9252 52.0846 47.8425 53.1673C46.9511 54.0586 46.9511 55.5038 47.8425 56.3954C48.7338 57.2868 50.1792 57.2868 51.0706 56.3954C52.1362 55.3299 53.0768 54.4232 54.0218 53.502C54.9654 54.422 55.907 55.3296 56.973 56.3954C57.8643 57.2868 59.3095 57.2869 60.2011 56.3954C61.0925 55.504 61.0925 54.0587 60.2011 53.1673C59.1191 52.0853 58.1774 51.1774 57.2001 50.225C59.0175 48.1422 60.2567 46.084 60.6937 43.3684H63.1521C64.4127 43.3684 65.4347 42.3464 65.4347 41.0859C65.4347 39.8253 64.4124 38.8033 63.1519 38.8033ZM54.0216 46.9255C53.0204 45.7312 52.3602 44.6351 52.0184 43.3685H56.0247C55.6829 44.6351 55.0226 45.7313 54.0216 46.9255Z" fill="#E6F3FF"/>
<path d="M51.5824 48.6255C51.2401 47.7505 50.3954 47.1738 49.4566 47.1738H26.0221C25.3373 47.1738 24.6906 47.4797 24.2554 48.0093C23.8217 48.5373 23.6498 49.2343 23.7837 49.9038L27.4359 68.1644C27.6581 69.2738 28.6001 69.957 29.5922 69.9996C29.6577 70.0011 29.7231 70.0011 29.7886 69.9996C30.2953 69.9768 30.8021 69.7835 31.2236 69.3955L51.0059 51.1349C51.6966 50.4972 51.9248 49.5005 51.5824 48.6255Z" fill="#866232"/>
<path d="M49.4563 51.7383H6.8482C3.07215 51.7383 0.000488281 48.6666 0.000488281 44.8906V6.84771C0.000488281 3.0718 3.07229 0 6.8482 0H40.3259C41.4197 0 42.3588 0.775744 42.5669 1.84858L51.6971 49.0217C51.8264 49.6905 51.651 50.3829 51.2172 50.9076C50.7833 51.4337 50.1384 51.7383 49.4563 51.7383Z" fill="#A69174"/>
<path d="M23.84 27.936H18.688V36H14.592V12.608H23.84C28.544 12.608 31.584 15.68 31.584 20.256C31.584 24.768 28.512 27.936 23.84 27.936ZM23.04 16.256H18.688V24.288H22.976C25.792 24.288 27.296 22.784 27.296 20.224C27.296 17.664 25.76 16.256 23.04 16.256Z" fill="white"/>
</g>
<defs>
<clipPath id="clip0_2709_12004">
<rect width="70" height="70" fill="white"/>
</clipPath>
</defs>
</svg>
